# xmcd CD database file
#
# Track frame offsets:
#	150
#	26760
#	56593
#	92259
#	121812
#	148634
#	176533
#	217953
#	246913
#
# Disc length: 3677 seconds
#
# Revision: 0
# Processed by: cddbd v1.5.2PL0 Copyright (c) Steve Scherf et al.
# Submitted via: CDex 1.70beta2
#
DISCID=740e5b09
DTITLE=John Abercrombie - Within A Song
DYEAR=2012
DGENRE=Jazz
TTITLE0=Where Are You
TTITLE1=Easy Reader
TTITLE2=Within A Song - Without A Song
TTITLE3=Flamenco Sketches
TTITLE4=Nick Of Time
TTITLE5=Blues Connotation
TTITLE6=Wise One
TTITLE7=Interplay
TTITLE8=Sometime Ago
EXTD=YEAR: 2012
EXTT0=
EXTT1=
EXTT2=
EXTT3=
EXTT4=
EXTT5=
EXTT6=
EXTT7=
EXTT8=
PLAYORDER=
